<svg xmlns="http://www.w3.org/2000/svg" width="24" height="24" fill="currentColor" viewBox="0 0 24 24">
  <path fill-rule="evenodd" d="M12 4.75a7.25 7.25 0 1 0 0 14.5 7.25 7.25 0 0 0 0-14.5ZM3.25 12a8.75 8.75 0 1 1 17.5 0 8.75 8.75 0 0 1-17.5 0Zm18.22-6.47-3-3 1.06-1.06 3 3-1.06 1.06Zm-15.94-3-3 3-1.06-1.06 3-3 1.06 1.06Z" clip-rule="evenodd"/>
  <path fill-rule="evenodd" d="M16 12.75H8v-1.5h8v1.5Z" clip-rule="evenodd"/>
  <path fill-rule="evenodd" d="M11.25 16V8h1.5v8h-1.5Z" clip-rule="evenodd"/>
</svg>
