<svg xmlns="http://www.w3.org/2000/svg" width="24" height="24" fill="currentColor" viewBox="0 0 24 24">
  <path fill-rule="evenodd" d="M4.75 8v10c0 .69.56 1.25 1.25 1.25h12c.69 0 1.25-.56 1.25-1.25V8h1.5v10A2.75 2.75 0 0 1 18 20.75H6A2.75 2.75 0 0 1 3.25 18V8h1.5Z" clip-rule="evenodd"/>
  <path fill-rule="evenodd" d="M15 12.75H9v-1.5h6v1.5Zm-11-8a.25.25 0 0 0-.25.25v2c0 .138.112.25.25.25h16a.25.25 0 0 0 .25-.25V5a.25.25 0 0 0-.25-.25H4ZM2.25 5c0-.966.784-1.75 1.75-1.75h16c.966 0 1.75.784 1.75 1.75v2A1.75 1.75 0 0 1 20 8.75H4A1.75 1.75 0 0 1 2.25 7V5Z" clip-rule="evenodd"/>
</svg>
