<svg xmlns="http://www.w3.org/2000/svg" width="24" height="24" fill="currentColor" viewBox="0 0 24 24">
  <path fill-rule="evenodd" d="M4.5 9.25H16c1.198 0 2.38.478 3.313 1.402.979.868 1.437 2.181 1.437 3.348 0 1.198-.477 2.38-1.402 3.313-.86.972-2.071 1.437-3.348 1.437h-2v-1.5h2c.915 0 1.697-.329 2.236-.944l.016-.019.018-.017c.663-.664.98-1.475.98-2.27 0-.826-.336-1.703-.944-2.236l-.019-.016-.017-.018c-.664-.664-1.475-.98-2.27-.98H4.5v-1.5Z" clip-rule="evenodd"/>
  <path fill-rule="evenodd" d="m5.56 10 4.47-4.47-1.06-1.06L3.44 10l5.53 5.53 1.06-1.06L5.56 10Z" clip-rule="evenodd"/>
</svg>
