<svg xmlns="http://www.w3.org/2000/svg" width="24" height="24" fill="currentColor" viewBox="0 0 24 24">
  <path fill-rule="evenodd" d="M12 4.75a4.8 4.8 0 0 0-2.9.947.75.75 0 0 1-.89-1.208A6.3 6.3 0 0 1 12 3.25c2.117 0 3.784.975 4.922 2.29 1.125 1.3 1.758 2.96 1.827 4.425V13a.75.75 0 0 1-1.5 0v-2.982c-.056-1.117-.555-2.45-1.461-3.497-.9-1.039-2.172-1.771-3.788-1.771ZM6.774 7.222a.75.75 0 0 1 .406.98 5.552 5.552 0 0 0-.43 1.816V13c0 1.445-.466 2.453-1.06 3.25h9.887a.75.75 0 0 1 0 1.5H4a.75.75 0 0 1-.53-1.28c.992-.992 1.78-1.8 1.78-3.47V9.965a7.047 7.047 0 0 1 .544-2.337.75.75 0 0 1 .98-.406Z" clip-rule="evenodd"/>
  <path fill-rule="evenodd" d="M9 16.25a.75.75 0 0 1 .75.75v1a2.25 2.25 0 1 0 4.5 0v-1a.75.75 0 0 1 1.5 0v1a3.75 3.75 0 1 1-7.5 0v-1a.75.75 0 0 1 .75-.75Zm3-15a.75.75 0 0 1 .75.75v2a.75.75 0 0 1-1.5 0V2a.75.75 0 0 1 .75-.75Z" clip-rule="evenodd"/>
  <path fill-rule="evenodd" d="m5.92 8.402-4.16-4.16 1.06-1.061 18 18-1.06 1.06L5.92 8.402Z" clip-rule="evenodd"/>
</svg>
