<svg xmlns="http://www.w3.org/2000/svg" width="24" height="24" fill="currentColor" viewBox="0 0 24 24">
  <path fill-rule="evenodd" d="M6.75 10.015V13c0 1.445-.466 2.453-1.06 3.25h12.62c-.594-.797-1.06-1.805-1.06-3.25v-2.985c-.047-1.117-.55-2.449-1.465-3.497C14.879 5.479 13.6 4.75 12 4.75s-2.879.73-3.785 1.768c-.914 1.048-1.418 2.38-1.465 3.497Zm.335-4.483C8.229 4.221 9.9 3.25 12 3.25s3.771.97 4.915 2.282c1.132 1.298 1.778 2.96 1.835 4.44V13c0 1.67.788 2.477 1.78 3.47a.75.75 0 0 1-.53 1.28H4a.75.75 0 0 1-.53-1.28c.992-.992 1.78-1.8 1.78-3.47V9.971c.057-1.48.703-3.141 1.835-4.439Z" clip-rule="evenodd"/>
  <path fill-rule="evenodd" d="M9 16.25a.75.75 0 0 1 .75.75v1c0 1.286.964 2.25 2.25 2.25s2.25-.964 2.25-2.25v-1a.75.75 0 0 1 1.5 0v1c0 2.114-1.636 3.75-3.75 3.75S8.25 20.114 8.25 18v-1a.75.75 0 0 1 .75-.75Zm8.424-13.73a.75.75 0 0 1 1.056-.096c1.307 1.089 2.463 2.786 3.19 4.24a.75.75 0 1 1-1.34.671c-.673-1.345-1.717-2.848-2.81-3.759a.75.75 0 0 1-.096-1.056Zm-10.848 0a.75.75 0 0 1-.096 1.056c-1.093.911-2.136 2.414-2.809 3.76a.75.75 0 0 1-1.342-.671C3.057 5.21 4.214 3.513 5.52 2.424a.75.75 0 0 1 1.056.096ZM12 1.25a.75.75 0 0 1 .75.75v2a.75.75 0 0 1-1.5 0V2a.75.75 0 0 1 .75-.75Z" clip-rule="evenodd"/>
</svg>
