<svg xmlns="http://www.w3.org/2000/svg" width="24" height="24" fill="currentColor" viewBox="0 0 24 24">
  <path d="M22.47 5.32C20.83 4.45 18.99 4 17 4c-1.42 0-2.75.23-4 .68V17c0 .55-.45 1-1 1s-1-.45-1-1V4.68C9.75 4.24 8.42 4 7 4c-1.99 0-3.83.44-5.47 1.32-.33.17-.53.51-.53.88V19c0 .35.18.68.49.86.3.18.68.19.99.03 1.35-.72 2.87-1.08 4.53-1.08 1.66 0 3.18.36 4.53 1.08.29.16.65.16.94 0 1.35-.72 2.87-1.08 4.53-1.08 1.66 0 3.18.36 4.53 1.08a.995.995 0 0 0 .98-.02c.3-.18.49-.51.49-.86V6.2c0-.37-.2-.71-.53-.88h-.01Z"/>
</svg>
