<svg xmlns="http://www.w3.org/2000/svg" width="24" height="24" fill="currentColor" viewBox="0 0 24 24">
  <path fill-rule="evenodd" d="M16.25 8V2h1.5v6h-1.5Zm-10 0V2h1.5v6h-1.5ZM21 11.75H3v-1.5h18v1.5Z" clip-rule="evenodd"/>
  <path fill-rule="evenodd" d="M4 5.75a.25.25 0 0 0-.25.25v14c0 .138.112.25.25.25h16a.25.25 0 0 0 .25-.25V6a.25.25 0 0 0-.25-.25H4ZM2.25 6c0-.966.784-1.75 1.75-1.75h16c.966 0 1.75.784 1.75 1.75v14A1.75 1.75 0 0 1 20 21.75H4A1.75 1.75 0 0 1 2.25 20V6Z" clip-rule="evenodd"/>
  <path fill-rule="evenodd" d="M15 16.75H9v-1.5h6v1.5Z" clip-rule="evenodd"/>
</svg>
