<svg xmlns="http://www.w3.org/2000/svg" width="24" height="24" fill="currentColor" viewBox="0 0 24 24">
  <path fill-rule="evenodd" d="M12.324 11.42c.673-.808 1.706-1.17 2.676-1.17 1.001 0 1.88.38 2.607 1.096.789.674 1.143 1.695 1.143 2.654 0 1.001-.38 1.88-1.096 2.607-.674.789-1.695 1.143-2.654 1.143-1.001 0-1.88-.38-2.607-1.096-.789-.674-1.143-1.695-1.143-2.654 0-1.057.528-1.925 1.074-2.58Zm2.676.33c-.63 0-1.197.238-1.524.63-.454.545-.726 1.077-.726 1.62 0 .63.238 1.197.63 1.524l.026.022.024.024c.47.468.982.68 1.57.68.63 0 1.197-.238 1.524-.63l.022-.026.024-.024c.468-.47.68-.982.68-1.57 0-.63-.238-1.197-.63-1.524l-.026-.022-.024-.024c-.47-.469-.982-.68-1.57-.68Z" clip-rule="evenodd"/>
  <path fill-rule="evenodd" d="M13 15.75a.75.75 0 0 1 .75.75v3l.8-.6a.75.75 0 0 1 .9 0l.8.6v-3a.75.75 0 0 1 1.5 0V21a.75.75 0 0 1-1.2.6L15 20.437 13.45 21.6a.75.75 0 0 1-1.2-.6v-4.5a.75.75 0 0 1 .75-.75Z" clip-rule="evenodd"/>
  <path fill-rule="evenodd" d="M5 4.75c-.686 0-1.25.564-1.25 1.25v10c0 .295.116.606.38.87s.575.38.87.38h5a.75.75 0 0 1 0 1.5H5a2.724 2.724 0 0 1-1.93-.82A2.724 2.724 0 0 1 2.25 16V6A2.756 2.756 0 0 1 5 3.25h14c.705 0 1.394.284 1.93.82A2.72 2.72 0 0 1 21.75 6v10.043c0 .371.002.922-.462 1.427-.09.135-.207.305-.343.457-.16.178-.389.378-.708.485a.75.75 0 0 1-.474-1.424l-.005.002a.37.37 0 0 0 .072-.067c.07-.077.14-.179.246-.339a.744.744 0 0 1 .094-.114.267.267 0 0 0 .047-.058.156.156 0 0 0 .015-.043.745.745 0 0 0 .014-.126c.004-.065.004-.139.004-.243V6c0-.295-.116-.606-.38-.87a1.225 1.225 0 0 0-.87-.38H5Z" clip-rule="evenodd"/>
  <path fill-rule="evenodd" d="M18 8.75H6v-1.5h12v1.5Zm-9 4H6v-1.5h3v1.5Z" clip-rule="evenodd"/>
</svg>
