<svg xmlns="http://www.w3.org/2000/svg" width="24" height="24" fill="currentColor" viewBox="0 0 24 24">
  <path fill-rule="evenodd" d="M11.25 14c0-1.012.389-1.9 1.12-2.63l1.06 1.06c-.469.47-.68.982-.68 1.57 0 .63.238 1.197.63 1.524l.026.022.024.024c.47.468.982.68 1.57.68.63 0 1.197-.238 1.524-.63l1.152.96c-.673.808-1.706 1.17-2.676 1.17-1.001 0-1.88-.38-2.607-1.096-.789-.674-1.143-1.695-1.143-2.654Z" clip-rule="evenodd"/>
  <path fill-rule="evenodd" d="M13 15.75a.75.75 0 0 1 .75.75v3l.8-.6a.75.75 0 0 1 .9 0l.8.6v-3a.75.75 0 0 1 1.5 0V21a.75.75 0 0 1-1.2.6L15 20.437 13.45 21.6a.75.75 0 0 1-1.2-.6v-4.5a.75.75 0 0 1 .75-.75Zm-8-11c-.686 0-1.25.564-1.25 1.25v10c0 .295.116.606.38.87s.575.38.87.38h5a.75.75 0 0 1 0 1.5H5a2.724 2.724 0 0 1-1.93-.82A2.724 2.724 0 0 1 2.25 16V6A2.756 2.756 0 0 1 5 3.25a.75.75 0 0 1 0 1.5ZM8.25 4A.75.75 0 0 1 9 3.25h10c.705 0 1.394.284 1.93.82A2.72 2.72 0 0 1 21.75 6v10a.75.75 0 0 1-1.5 0V6c0-.295-.116-.606-.38-.87a1.225 1.225 0 0 0-.87-.38H9A.75.75 0 0 1 8.25 4Z" clip-rule="evenodd"/>
  <path fill-rule="evenodd" d="M9 8.75H6v-1.5h3v1.5Zm9 0h-5v-1.5h5v1.5Zm-9 4H6v-1.5h3v1.5Z" clip-rule="evenodd"/>
  <path fill-rule="evenodd" d="m20.47 20.53-18-18 1.06-1.06 18 18-1.06 1.06Z" clip-rule="evenodd"/>
</svg>
