<svg xmlns="http://www.w3.org/2000/svg" width="24" height="24" fill="currentColor" viewBox="0 0 24 24">
  <path fill-rule="evenodd" d="m12 1.084 10.853 7.597-3.267 13.069H4.415L1.147 8.681 12 1.084ZM2.853 9.32l2.733 10.93h12.829l2.733-10.931L12 2.915 2.853 9.32Z" clip-rule="evenodd"/>
  <path fill-rule="evenodd" d="m11.99 6.11 6.338 3.977-2.094 7.376H7.76l-1.873-7.375 6.104-3.978Zm.016 1.78-4.4 2.869 1.32 5.204h6.175l1.477-5.204-4.572-2.869Z" clip-rule="evenodd"/>
  <path fill-rule="evenodd" d="m1.785 9.718.43-1.436L12 11.217l9.785-2.935.43 1.436L12 12.783 1.785 9.718Z" clip-rule="evenodd"/>
  <path fill-rule="evenodd" d="M11.25 2h1.5v9.743l6.842 8.796-1.184.921-7.158-9.203V2Z" clip-rule="evenodd"/>
  <path fill-rule="evenodd" d="m12.592 12.46-7 9-1.184-.92 7-9 1.184.92Z" clip-rule="evenodd"/>
</svg>
