<svg xmlns="http://www.w3.org/2000/svg" width="24" height="24" fill="currentColor" viewBox="0 0 24 24">
  <path d="M7.47 21.75H2.25v-5.22L9.4 9.4l1.06 1.07-6.71 6.69v3.09h3.09l6.69-6.71 1.07 1.05-7.13 7.16Zm9.22-9.25-1.06-1.06 3.99-4c.4-.4.63-.96.63-1.53a2.2 2.2 0 0 0-.63-1.53c-.81-.81-2.24-.81-3.05 0l-4.01 3.99-1.06-1.06 4-3.99c.68-.68 1.62-1.07 2.58-1.07s1.89.38 2.59 1.07a3.68 3.68 0 0 1 1.07 2.59c0 .97-.39 1.91-1.07 2.59l-3.99 4h.01Z"/>
  <path d="m14.61 5.242-1.06 1.06 4.15 4.151 1.06-1.06-4.15-4.151ZM3.527 2.468l-1.06 1.06L20.47 21.533l1.06-1.06L3.527 2.467Z"/>
</svg>
