<svg xmlns="http://www.w3.org/2000/svg" width="24" height="24" fill="currentColor" viewBox="0 0 24 24">
  <path fill-rule="evenodd" d="M3.25 7A2.756 2.756 0 0 1 6 4.25h6v1.5H6c-.686 0-1.25.564-1.25 1.25v11c0 .686.564 1.25 1.25 1.25h11c.686 0 1.25-.564 1.25-1.25v-6h1.5v6A2.756 2.756 0 0 1 17 20.75H6A2.756 2.756 0 0 1 3.25 18V7Z" clip-rule="evenodd"/>
  <path fill-rule="evenodd" d="m21.53 3.53-10 10-1.06-1.06 10-10 1.06 1.06Z" clip-rule="evenodd"/>
  <path fill-rule="evenodd" d="M20.25 3.75H15v-1.5h6.75V9h-1.5V3.75Z" clip-rule="evenodd"/>
</svg>
