<svg xmlns="http://www.w3.org/2000/svg" width="24" height="24" fill="currentColor" viewBox="0 0 24 24">
  <path d="M13.2 20.6C11.4 18 11 15.9 11 13v-2h2v2c0 2.9.4 4.4 1.8 6.4l-1.6 1.1v.1Zm3.3-2c-1-1.5-1.5-3.1-1.5-5.6h2c0 2 .3 3.3 1.1 4.4l-1.6 1.2Z"/>
  <path d="m9.1 21.4-.2-.4c-.4-.8-.9-1.7-1.2-2.8-.8-2.7-.7-5-.7-6.7V11c0-2.5 1.5-5 5-5s5 3.3 5 5h-2c0-.5-.6-3-3-3s-3 2.3-3 3v.5c0 1.7 0 3.8.7 6.2.2.9.6 1.6 1 2.4l.2.4-1.8.9Z"/>
  <path d="M20.1 16.5c0-.1-.2-.3-.2-.4-.5-.8-.9-1.6-.9-4.1 0-2.5-1-8-7.4-8S6 7.3 5.9 7.4l-1.8-.8c0-.2 2-4.6 7.5-4.6C20.3 2 21 9.7 21 12s.3 2.5.6 3c.1.2.2.3.3.5l-1.7 1h-.1ZM4 19.3c-.6-2.1-1.1-4.6-1-7.3v-1h2v1c0 2.2.3 4.3 1 6.7l-1.9.5-.1.1Z"/>
</svg>
