<svg xmlns="http://www.w3.org/2000/svg" width="24" height="24" fill="currentColor" viewBox="0 0 24 24">
  <path d="M16.9 11c0-1.8-1.3-3.2-1.7-3.6-.9-.9-2.1-1.4-3.4-1.4-1.3 0-2.5.5-3.5 1.4C7.5 8.4 7 9.7 7 11h2c0-.8.3-1.6.8-2.2 1-1 3-1 4 0 .5.5 1.1 1.4 1.1 2.2 0 1.9.4 3.7 1.1 5.4l1.8-.8c-.6-1.5-.9-3-.9-4.6Z"/>
  <path d="M13 13v-2h-2v2c0 1.2.5 2.7.9 3.9l.2.5 1.9-.6-.2-.5c-.4-1-.8-2.3-.8-3.2V13Zm-6 0c0 1 .2 2.7 1.1 5.3l1.9-.6c-.8-2.3-.9-3.8-.9-4.7H7ZM4 5.2c0-.3 0-.6.3-.8.2-.3.6-.5.9-.5H8v-2H5.2c-.8 0-1.6.4-2.3 1-.7.6-1 1.4-1 2.3V8h2V5.2H4Zm.4 14.5c-.3-.3-.3-.6-.3-.9V16h-2v2.8c0 1 .4 1.8 1 2.3.6.6 1.5 1 2.3 1h2.8v-2H5.4c-.3 0-.6-.2-.9-.4h-.1ZM21.1 3c-.6-.7-1.4-1-2.3-1H16v2h2.8c.3 0 .6 0 .8.3.2.3.4.7.4 1v2.8h2V5.3c0-.8-.4-1.6-1-2.3h.1Zm-1 15.7c0 .3-.2.6-.4.9-.2.4-.6.4-.8.4h-2.8v2h2.8c1 0 1.8-.4 2.3-1 .6-.6 1-1.5 1-2.3v-2.8h-2v2.8h-.1Z"/>
</svg>
