<svg xmlns="http://www.w3.org/2000/svg" width="24" height="24" fill="currentColor" viewBox="0 0 24 24">
  <path fill-rule="evenodd" d="M11.25 21v-2h1.5v2h-1.5ZM12 4.75C9.363 4.75 7.75 6.764 7.75 9h-1.5c0-2.964 2.187-5.75 5.75-5.75 1.626 0 3.072.563 4.114 1.59C17.158 5.87 17.75 7.32 17.75 9c0 1.72-.646 2.8-1.46 3.505a5.687 5.687 0 0 1-1.14.748c-.162.083-.29.145-.396.196a3.85 3.85 0 0 0-.356.187c-.818.51-1.648 1.114-1.648 2.264v1.2h-1.5v-1.2c0-2.05 1.57-3.047 2.352-3.536a7.4 7.4 0 0 1 .603-.317c.093-.045.182-.089.258-.128.296-.152.586-.323.846-.549.487-.42.941-1.09.941-2.37 0-1.32-.458-2.37-1.19-3.09-.732-.723-1.786-1.16-3.06-1.16Z" clip-rule="evenodd"/>
</svg>
