<svg xmlns="http://www.w3.org/2000/svg" width="24" height="24" fill="currentColor" viewBox="0 0 24 24">
  <path fill-rule="evenodd" d="M2.25 14.25H8v1.5H3.75V21h-1.5v-6.75Z" clip-rule="evenodd"/>
  <path fill-rule="evenodd" d="M12 3.75A8.25 8.25 0 0 0 3.75 12h-1.5A9.75 9.75 0 0 1 12 2.25 9.75 9.75 0 0 1 21.75 12 9.75 9.75 0 0 1 12 21.75a9.75 9.75 0 0 1-8.628-5.205 98.171 98.171 0 0 0-.42-.468l-.01-.011a94.774 94.774 0 0 1-.461-.516 2.848 2.848 0 0 1-.098-.124.857.857 0 0 1-.054-.09l1.342-.671a.643.643 0 0 0-.068-.11l-.009-.012.021.025c.025.028.06.07.107.12.091.103.212.237.335.373l.012.014a107.914 107.914 0 0 1 .449.502 3.003 3.003 0 0 1 .095.118.77.77 0 0 1 .051.084l.002.004A8.25 8.25 0 0 0 12 20.25 8.25 8.25 0 0 0 20.25 12 8.25 8.25 0 0 0 12 3.75Z" clip-rule="evenodd"/>
  <path fill-rule="evenodd" d="M11.25 7h1.5v4.69l2.78 2.78-1.06 1.06-3.22-3.22V7Z" clip-rule="evenodd"/>
</svg>
