<svg xmlns="http://www.w3.org/2000/svg" width="24" height="24" fill="currentColor" viewBox="0 0 24 24">
  <path fill-rule="evenodd" d="M11.636 2.344a.75.75 0 0 1 .728 0l9 5a.75.75 0 0 1 0 1.312l-9 5a.75.75 0 0 1-.728 0l-9-5a.75.75 0 0 1 0-1.312l9-5ZM4.544 8 12 12.142 19.456 8 12 3.858 4.544 8Z" clip-rule="evenodd"/>
  <path fill-rule="evenodd" d="M2.345 11.636a.75.75 0 0 1 1.02-.291L12 16.142l8.636-4.797a.75.75 0 0 1 .728 1.31l-9 5a.75.75 0 0 1-.728 0l-9-5a.75.75 0 0 1-.291-1.02Z" clip-rule="evenodd"/>
  <path fill-rule="evenodd" d="M2.345 15.636a.75.75 0 0 1 1.02-.291L12 20.142l8.636-4.797a.75.75 0 0 1 .728 1.31l-9 5a.75.75 0 0 1-.728 0l-9-5a.75.75 0 0 1-.291-1.02Z" clip-rule="evenodd"/>
</svg>
