<svg xmlns="http://www.w3.org/2000/svg" width="24" height="24" fill="currentColor" viewBox="0 0 24 24">
  <path d="m2.514 8.874 9 5a.998.998 0 0 0 .972 0l9-5a1.001 1.001 0 0 0 0-1.748l-9-5a1 1 0 0 0-.972 0l-9 5a1 1 0 0 0 0 1.748Z"/>
  <path d="M20.515 11.126 12 15.856l-8.514-4.73a1 1 0 0 0-.972 1.748l9 5a.998.998 0 0 0 .972 0l9-5a1 1 0 0 0-.97-1.748Z"/>
  <path d="M20.515 15.126 12 19.856l-8.514-4.73a.997.997 0 0 0-1.36.389.999.999 0 0 0 .388 1.359l9 5a.998.998 0 0 0 .972 0l9-5a1 1 0 0 0-.97-1.748Z"/>
</svg>
