<svg xmlns="http://www.w3.org/2000/svg" width="24" height="24" fill="currentColor" viewBox="0 0 24 24">
  <path d="M2.86 5.676h-.02l-1.117.759v-.814l1.133-.786h.914v4.381h-.91l-.002-3.54Zm-.242 7.774v-.04l.917-.835a7.9 7.9 0 0 0 .598-.601c.146-.168.25-.327.314-.478a1.25 1.25 0 0 0 .096-.493v-.006c0-.25-.066-.47-.198-.66a1.323 1.323 0 0 0-.549-.451 1.922 1.922 0 0 0-.817-.164c-.308 0-.583.06-.827.179a1.416 1.416 0 0 0-.575.496 1.3 1.3 0 0 0-.209.73v.024h.85l.003-.027a.694.694 0 0 1 .103-.352.705.705 0 0 1 .267-.246.82.82 0 0 1 .395-.091c.13 0 .244.026.343.079a.605.605 0 0 1 .234.217.596.596 0 0 1 .085.32v.006a.81.81 0 0 1-.053.29 1.2 1.2 0 0 1-.199.314c-.097.118-.24.264-.428.44L1.42 13.549v.628h3.185v-.73H2.62v.003Zm-.485 5.758a1.414 1.414 0 0 1-.587-.451 1.27 1.27 0 0 1-.249-.665l-.003-.04h.877l.006.034a.527.527 0 0 0 .126.28c.07.082.164.147.282.195.119.048.257.07.414.07.157 0 .295-.025.41-.076a.632.632 0 0 0 .269-.215.542.542 0 0 0 .096-.317v-.006a.566.566 0 0 0-.222-.48c-.148-.111-.354-.167-.62-.167h-.5v-.656h.489a.973.973 0 0 0 .399-.076.62.62 0 0 0 .262-.21.522.522 0 0 0 .094-.31v-.005a.568.568 0 0 0-.08-.307.506.506 0 0 0-.234-.194.928.928 0 0 0-.37-.067.986.986 0 0 0-.376.068.593.593 0 0 0-.379.49l-.003.03H1.39l.003-.04a1.3 1.3 0 0 1 .238-.661c.137-.188.321-.334.554-.44.233-.104.502-.155.808-.155.316 0 .589.048.821.144.232.096.41.23.539.402a.984.984 0 0 1 .19.604v.006a.935.935 0 0 1-.121.48 1.005 1.005 0 0 1-.329.343A1.336 1.336 0 0 1 3.63 17v.018c.326.03.587.136.782.316.195.18.293.419.293.716v.006c0 .26-.071.49-.213.688-.142.198-.34.35-.595.46a2.267 2.267 0 0 1-.896.164c-.332 0-.622-.054-.87-.163l.002.002Z"/>
  <path fill-rule="evenodd" d="M22 7.75H6v-1.5h16v1.5Zm0 5H6v-1.5h16v1.5Zm0 5H6v-1.5h16v1.5Z" clip-rule="evenodd"/>
</svg>
