<svg xmlns="http://www.w3.org/2000/svg" width="24" height="24" fill="currentColor" viewBox="0 0 24 24">
  <path fill-rule="evenodd" d="M21.394 2.362A.75.75 0 0 1 21.75 3v14a.75.75 0 0 1-.415.67l-6 3a.75.75 0 0 1-.67 0L9 17.839l-5.665 2.833A.75.75 0 0 1 2.25 20V6a.75.75 0 0 1 .415-.67l6-3a.75.75 0 0 1 .67 0L15 5.16l5.665-2.832a.75.75 0 0 1 .73.033ZM3.75 6.464v12.322l4.915-2.457a.75.75 0 0 1 .67 0L15 19.161l5.25-2.625V4.215L15.335 6.67a.75.75 0 0 1-.67 0L9 3.839 3.75 6.464Z" clip-rule="evenodd"/>
  <path fill-rule="evenodd" d="M8.25 17V3h1.5v14h-1.5Zm6 3V6h1.5v14h-1.5Z" clip-rule="evenodd"/>
</svg>
