<svg xmlns="http://www.w3.org/2000/svg" width="24" height="24" fill="currentColor" viewBox="0 0 24 24">
  <path fill-rule="evenodd" d="M5.25 14.25h5.5V20c0 .47-.16.92-.495 1.255-.334.335-.785.495-1.255.495H7c-.47 0-.92-.16-1.255-.495-.335-.334-.495-.785-.495-1.255v-5.75Zm1.5 1.5V20c0 .13.04.18.055.195.016.015.065.055.195.055h2c.13 0 .18-.04.195-.055.015-.016.055-.065.055-.195v-4.25h-2.5Z" clip-rule="evenodd"/>
  <path fill-rule="evenodd" d="M18.376 2.351A.75.75 0 0 1 18.75 3v16a.75.75 0 0 1-1.122.651L10.8 15.75H3a.75.75 0 0 1-.75-.75V7A.75.75 0 0 1 3 6.25h7.8l6.828-3.901a.75.75 0 0 1 .748.002ZM17.25 4.292l-5.878 3.36A.75.75 0 0 1 11 7.75H3.75v6.5H11a.75.75 0 0 1 .372.099l5.878 3.359V4.292Z" clip-rule="evenodd"/>
  <path fill-rule="evenodd" d="M20.25 11c0-1.286-.964-2.25-2.25-2.25v-1.5c2.114 0 3.75 1.636 3.75 3.75s-1.636 3.75-3.75 3.75v-1.5c1.286 0 2.25-.964 2.25-2.25Z" clip-rule="evenodd"/>
</svg>
