<svg xmlns="http://www.w3.org/2000/svg" width="24" height="24" fill="currentColor" viewBox="0 0 24 24">
  <path fill-rule="evenodd" d="M10.855 3.784c.874-.983 2.19-1.434 3.445-1.434 1.295 0 2.487.477 3.43 1.42a4.755 4.755 0 0 1 1.42 3.43 4.755 4.755 0 0 1-1.42 3.43l-.004.005-6.398 6.298c-.55.548-1.244.817-2.028.817-.786 0-1.48-.27-2.03-.82-.55-.55-.82-1.244-.82-2.03 0-.785.27-1.48.82-2.03l6.4-6.4 1.06 1.06-6.4 6.4c-.25.25-.38.556-.38.97 0 .415.13.72.38.97s.555.38.97.38c.414 0 .72-.13.97-.38l.004-.004 6.398-6.298A3.255 3.255 0 0 0 17.65 7.2c0-.905-.324-1.713-.98-2.37a3.255 3.255 0 0 0-2.37-.98c-.936 0-1.81.342-2.336.944l-.018.021-6.418 6.317C4.475 12.187 3.95 13.493 3.95 15c0 1.476.603 2.797 1.592 3.881a5.455 5.455 0 0 0 3.858 1.57c1.414 0 2.82-.531 3.87-1.581l.003-.004 7.6-7.5 1.054 1.068-7.597 7.496c0 .001 0 .002-.002.002A6.954 6.954 0 0 1 9.4 21.95c-1.786 0-3.58-.67-4.93-2.02l-.012-.011-.01-.012C3.242 18.593 2.45 16.919 2.45 15c0-1.892.674-3.585 2.02-4.93l.004-.004 6.381-6.282Z" clip-rule="evenodd"/>
</svg>
