<svg xmlns="http://www.w3.org/2000/svg" width="24" height="24" fill="currentColor" viewBox="0 0 24 24">
  <path fill-rule="evenodd" d="M21.75 9.75h-5a.75.75 0 0 1 0-1.5h3.5v-4.5a.75.75 0 0 1 1.5 0v6Z" clip-rule="evenodd"/>
  <path fill-rule="evenodd" d="M12 20.25a8.25 8.25 0 0 0 8.216-7.5c.038-.413.37-.75.784-.75.414 0 .753.337.722.75-.383 5.035-4.59 9-9.722 9A9.75 9.75 0 0 1 2.25 12 9.75 9.75 0 0 1 12 2.25a9.75 9.75 0 0 1 8.628 5.205l.094.106.325.362.01.011a90.09 90.09 0 0 1 .462.517 2.886 2.886 0 0 1 .098.123c.007.01.03.044.054.09l-1.342.671a.729.729 0 0 0 .068.11l.009.012a87.206 87.206 0 0 0-.462-.518l-.013-.014-.328-.365a15.004 15.004 0 0 1-.194-.224.854.854 0 0 1-.073-.115l-.002-.004A8.25 8.25 0 0 0 12 3.75 8.25 8.25 0 0 0 3.75 12 8.25 8.25 0 0 0 12 20.25Z" clip-rule="evenodd"/>
</svg>
