<svg xmlns="http://www.w3.org/2000/svg" width="24" height="24" fill="currentColor" viewBox="0 0 24 24">
  <path fill-rule="evenodd" d="M6.3 4.65c-.366 0-.783.194-1.07.48l-.029.03-.032.026c-.274.218-.419.571-.419 1.014v2.05a.75.75 0 1 1-1.5 0V6.2c0-.746.247-1.579.949-2.16.514-.5 1.283-.89 2.101-.89h2.05a.75.75 0 0 1 0 1.5H6.3ZM3.25 17.8v-2.05a.75.75 0 0 1 1.5 0v2.05c0 .442.145.796.419 1.014l.032.026.03.03c.286.286.703.48 1.069.48h2.05a.75.75 0 0 1 0 1.5H6.3c-.818 0-1.587-.391-2.101-.89-.702-.581-.949-1.414-.949-2.16ZM17.8 4.75h-2.05a.75.75 0 0 1 0-1.5h2.05c.746 0 1.579.247 2.16.949.499.514.89 1.283.89 2.101v2.05a.75.75 0 0 1-1.5 0V6.3c0-.366-.194-.783-.48-1.07l-.03-.029-.026-.032c-.218-.274-.572-.419-1.014-.419Zm2.3 10.15a.75.75 0 0 1 .75.75v2.05c0 .818-.391 1.587-.89 2.101-.581.702-1.414.949-2.16.949h-2.05a.75.75 0 0 1 0-1.5h2.05c.442 0 .796-.145 1.014-.419l.026-.032.03-.03c.286-.286.48-.703.48-1.07v-2.05a.75.75 0 0 1 .75-.75Z" clip-rule="evenodd"/>
</svg>
