<svg xmlns="http://www.w3.org/2000/svg" width="24" height="24" fill="currentColor" viewBox="0 0 24 24">
  <path fill-rule="evenodd" d="M2.25 11c0-4.814 3.936-8.75 8.75-8.75s8.75 3.936 8.75 8.75-3.936 8.75-8.75 8.75S2.25 15.814 2.25 11ZM11 3.75c-3.986 0-7.25 3.264-7.25 7.25s3.264 7.25 7.25 7.25 7.25-3.264 7.25-7.25S14.986 3.75 11 3.75Z" clip-rule="evenodd"/>
  <path fill-rule="evenodd" d="M16.6 16.6a.75.75 0 0 1 1.06 0L21 19.94A.75.75 0 0 1 19.94 21l-3.34-3.34a.75.75 0 0 1 0-1.06Z" clip-rule="evenodd"/>
</svg>
