<svg xmlns="http://www.w3.org/2000/svg" width="24" height="24" fill="currentColor" viewBox="0 0 24 24">
  <path fill-rule="evenodd" d="M8.25 12a3.75 3.75 0 1 1 7.5 0 3.75 3.75 0 0 1-7.5 0ZM12 9.75a2.25 2.25 0 1 0 0 4.5 2.25 2.25 0 0 0 0-4.5Z" clip-rule="evenodd"/>
  <path fill-rule="evenodd" d="M9.757 1.888a.75.75 0 0 1 .742-.639h3a.75.75 0 0 1 .742.639l.425 2.836c.202.073.4.154.594.244l2.304-1.703a.75.75 0 0 1 .976.073l2.121 2.12a.75.75 0 0 1 .073.977l-1.702 2.304c.09.194.17.392.244.594l2.835.425a.75.75 0 0 1 .639.742v3a.75.75 0 0 1-.639.742l-2.836.425a7.7 7.7 0 0 1-.243.594l1.702 2.304a.75.75 0 0 1-.073.976l-2.12 2.121a.75.75 0 0 1-.977.073l-2.304-1.702c-.194.09-.392.17-.594.244l-.425 2.835a.75.75 0 0 1-.742.639h-3a.75.75 0 0 1-.742-.639l-.425-2.836a7.726 7.726 0 0 1-.594-.244l-2.304 1.703a.75.75 0 0 1-.976-.073l-2.121-2.12a.75.75 0 0 1-.073-.977l1.702-2.304a7.66 7.66 0 0 1-.244-.594l-2.835-.425a.75.75 0 0 1-.639-.742v-3a.75.75 0 0 1 .639-.742l2.836-.425c.073-.202.154-.4.244-.594L3.264 6.435a.75.75 0 0 1 .073-.976l2.12-2.121a.75.75 0 0 1 .977-.073l2.304 1.702c.194-.09.392-.17.594-.244l.425-2.835Zm1.388.861-.398 2.653a.75.75 0 0 1-.53.608 6.16 6.16 0 0 0-1.197.493.75.75 0 0 1-.804-.056L6.062 4.855 4.854 6.063l1.592 2.154a.75.75 0 0 1 .056.804 6.224 6.224 0 0 0-.493 1.2.75.75 0 0 1-.608.527l-2.653.398v1.708l2.653.398a.75.75 0 0 1 .608.53c.125.421.29.822.493 1.197a.75.75 0 0 1-.056.804l-1.592 2.154 1.208 1.208 2.154-1.592a.75.75 0 0 1 .804-.056c.374.203.775.367 1.2.493a.75.75 0 0 1 .527.608l.398 2.653h1.708l.398-2.653a.75.75 0 0 1 .53-.608c.422-.125.822-.29 1.197-.493a.75.75 0 0 1 .804.056l2.154 1.592 1.208-1.208-1.592-2.154a.75.75 0 0 1-.056-.804c.203-.374.367-.775.493-1.2a.75.75 0 0 1 .608-.527l2.653-.398v-1.708l-2.653-.398a.75.75 0 0 1-.608-.53 6.157 6.157 0 0 0-.493-1.197.75.75 0 0 1 .056-.804l1.592-2.154-1.208-1.208-2.154 1.592a.75.75 0 0 1-.804.056 6.223 6.223 0 0 0-1.2-.493.75.75 0 0 1-.527-.608l-.398-2.653h-1.708Z" clip-rule="evenodd"/>
</svg>
