<svg xmlns="http://www.w3.org/2000/svg" width="24" height="24" fill="currentColor" viewBox="0 0 24 24">
  <path d="M14.98 1.804A1 1 0 0 0 14 1h-4a1 1 0 0 0-.98.804l-.386 1.927a1.069 1.069 0 0 1-.565.731 8.5 8.5 0 0 0-.629.364c-.273.174-.61.23-.917.125l-1.863-.63a1 1 0 0 0-1.187.447l-2 3.464a1 1 0 0 0 .207 1.251l1.478 1.299c.243.213.363.531.35.854-.01.243-.01.485 0 .728.013.323-.107.64-.35.854L1.68 14.517a1 1 0 0 0-.206 1.251l2 3.464a1 1 0 0 0 1.186.448l1.864-.63a1.07 1.07 0 0 1 .916.124c.203.13.413.251.628.364.287.15.503.414.566.732l.385 1.926A1 1 0 0 0 10 23h4a1 1 0 0 0 .98-.804l.386-1.927c.063-.318.278-.581.565-.731.214-.112.424-.234.629-.364.273-.174.61-.23.917-.125l1.863.63a1 1 0 0 0 1.187-.447l2-3.464a1 1 0 0 0-.206-1.251l-1.479-1.299a1.07 1.07 0 0 1-.35-.854c.01-.243.01-.485 0-.728a1.071 1.071 0 0 1 .35-.854l1.478-1.299a1 1 0 0 0 .206-1.251l-2-3.464a1 1 0 0 0-1.187-.447l-1.861.63a1.072 1.072 0 0 1-.917-.126 8.513 8.513 0 0 0-.629-.363 1.072 1.072 0 0 1-.565-.73l-.386-1.928ZM12 16a4 4 0 1 1 0-8 4 4 0 0 1 0 8Z"/>
</svg>
