<svg xmlns="http://www.w3.org/2000/svg" width="24" height="24" fill="currentColor" viewBox="0 0 24 24">
  <path fill-rule="evenodd" d="M2.25 11.5A3.226 3.226 0 0 1 5.5 8.25a3.226 3.226 0 0 1 3.25 3.25 3.226 3.226 0 0 1-3.25 3.25 3.226 3.226 0 0 1-3.25-3.25ZM5.5 9.75c-.986 0-1.75.764-1.75 1.75s.764 1.75 1.75 1.75 1.75-.764 1.75-1.75-.764-1.75-1.75-1.75Zm8.75-4.25a3.226 3.226 0 0 1 3.25-3.25 3.226 3.226 0 0 1 3.25 3.25 3.226 3.226 0 0 1-3.25 3.25 3.226 3.226 0 0 1-3.25-3.25Zm3.25-1.75c-.986 0-1.75.764-1.75 1.75s.764 1.75 1.75 1.75 1.75-.764 1.75-1.75-.764-1.75-1.75-1.75ZM14.25 18.5a3.226 3.226 0 0 1 3.25-3.25 3.226 3.226 0 0 1 3.25 3.25 3.226 3.226 0 0 1-3.25 3.25 3.226 3.226 0 0 1-3.25-3.25Zm3.25-1.75c-.986 0-1.75.764-1.75 1.75s.764 1.75 1.75 1.75 1.75-.764 1.75-1.75-.764-1.75-1.75-1.75Z" clip-rule="evenodd"/>
  <path fill-rule="evenodd" d="M15.98 6.282a.75.75 0 0 1-.362.997l-7.7 3.6a.75.75 0 1 1-.636-1.359l7.7-3.6a.75.75 0 0 1 .997.362Zm-9.031 6.146a.75.75 0 0 1 1.023-.28l7.7 4.4a.75.75 0 1 1-.744 1.303l-7.7-4.4a.75.75 0 0 1-.28-1.023Z" clip-rule="evenodd"/>
</svg>
