<svg xmlns="http://www.w3.org/2000/svg" width="24" height="24" fill="currentColor" viewBox="0 0 24 24">
  <path fill-rule="evenodd" d="M8.25 12c0-2.055 1.695-3.75 3.75-3.75 2.055 0 3.75 1.694 3.75 3.75s-1.694 3.75-3.75 3.75S8.25 14.056 8.25 12ZM12 9.75A2.27 2.27 0 0 0 9.75 12 2.27 2.27 0 0 0 12 14.25 2.27 2.27 0 0 0 14.25 12 2.27 2.27 0 0 0 12 9.75Z" clip-rule="evenodd"/>
  <path fill-rule="evenodd" d="M2.833 12c.791 1.543 3.297 5.25 9.167 5.25 5.872 0 8.374-3.704 9.167-5.25-.791-1.543-3.297-5.25-9.167-5.25-5.871 0-8.374 3.704-9.167 5.25Zm-1.515-.312C2.006 10.183 4.823 5.25 12 5.25c7.177 0 9.997 4.938 10.682 6.438l.143.312-.143.312C21.994 13.817 19.177 18.75 12 18.75c-7.177 0-9.997-4.938-10.682-6.438L1.175 12l.143-.312Z" clip-rule="evenodd"/>
</svg>
