<svg xmlns="http://www.w3.org/2000/svg" width="24" height="24" fill="currentColor" viewBox="0 0 24 24">
  <path fill-rule="evenodd" d="M6.75 6v13c0 .69.56 1.25 1.25 1.25h8c.69 0 1.25-.56 1.25-1.25V6h1.5v13A2.75 2.75 0 0 1 16 21.75H8A2.75 2.75 0 0 1 5.25 19V6h1.5Z" clip-rule="evenodd"/>
  <path fill-rule="evenodd" d="M21 6.75H3v-1.5h18v1.5Z" clip-rule="evenodd"/>
  <path fill-rule="evenodd" d="M7.25 4c0-.966.784-1.75 1.75-1.75h6c.966 0 1.75.784 1.75 1.75v2h-1.5V4a.25.25 0 0 0-.25-.25H9a.25.25 0 0 0-.25.25v2h-1.5V4Zm2 12V9h1.5v7h-1.5Zm4 0V9h1.5v7h-1.5Z" clip-rule="evenodd"/>
</svg>
