<svg xmlns="http://www.w3.org/2000/svg" width="24" height="24" fill="currentColor" viewBox="0 0 24 24">
  <path fill-rule="evenodd" d="M18.93 1.07c1.85 1.848 2.82 4.342 2.82 6.93s-.971 5.082-2.82 6.93l-1.06-1.06c1.551-1.552 2.38-3.658 2.38-5.87s-.829-4.318-2.38-5.87l1.06-1.06Zm-2.928 2.872C17.179 5.002 17.75 6.514 17.75 8c0 1.52-.694 3.005-1.72 4.03l-1.06-1.06c.774-.775 1.28-1.89 1.28-2.97 0-1.115-.429-2.202-1.252-2.943l1.004-1.115ZM6.346 5.393C7.02 4.604 8.041 4.25 9 4.25c1.001 0 1.88.38 2.607 1.096.789.674 1.143 1.695 1.143 2.654 0 1.001-.38 1.88-1.096 2.607-.674.789-1.695 1.143-2.654 1.143-1.001 0-1.88-.38-2.607-1.096C5.604 9.98 5.25 8.959 5.25 8c0-1.001.38-1.88 1.096-2.607ZM9 5.75c-.63 0-1.197.238-1.524.63l-.022.026-.024.024c-.468.47-.68.982-.68 1.57 0 .63.238 1.197.63 1.524l.026.022.024.024c.47.469.982.68 1.57.68.63 0 1.197-.238 1.524-.63l.022-.026.024-.024c.469-.47.68-.982.68-1.57 0-.63-.238-1.197-.63-1.524l-.026-.022-.024-.024c-.47-.468-.982-.68-1.57-.68Zm-2 10c-.795 0-1.606.317-2.27.98l-.017.018-.02.016c-.614.539-.943 1.321-.943 2.236v3h-1.5v-3c0-1.277.465-2.487 1.437-3.348.934-.925 2.115-1.402 3.313-1.402h4c1.277 0 2.487.465 3.348 1.437.925.934 1.402 2.115 1.402 3.313v3h-1.5v-3c0-.795-.316-1.606-.98-2.27l-.018-.017-.016-.02c-.539-.614-1.321-.943-2.236-.943H7Z" clip-rule="evenodd"/>
</svg>
