<svg xmlns="http://www.w3.org/2000/svg" width="24" height="24" fill="currentColor" viewBox="0 0 24 24">
  <path d="M9 12c1.4 0 2.7-.6 3.5-1.5 1-1 1.5-2.2 1.5-3.5 0-1.3-.6-2.7-1.5-3.5-1-1-2.2-1.5-3.5-1.5-1.3 0-2.7.6-3.5 1.5C4.5 4.5 4 5.7 4 7c0 1.3.5 2.7 1.5 3.5 1 1 2.2 1.5 3.5 1.5Zm5.6 3.5c-.9-1-2.1-1.5-3.6-1.5H7c-1.3 0-2.5.5-3.5 1.4-1 .9-1.5 2.1-1.5 3.6v3h14v-3c0-1.3-.5-2.5-1.4-3.5Zm6 0c-.9-1-2.1-1.5-3.6-1.5h-1.2l.2.2c1.3 1.3 2 3 2 4.8v3h4v-3c0-1.3-.5-2.5-1.4-3.5Zm-2.1-12c-1-1-2.2-1.5-3.5-1.5-1.3 0-.7 0-1 .1 1.3 1.2 2 3 2 4.9 0 1.9-.7 3.5-2 4.9.3 0 .7.1 1 .1 1.4 0 2.7-.6 3.5-1.5 1-1 1.5-2.2 1.5-3.5 0-1.3-.6-2.7-1.5-3.5Z"/>
</svg>
