<svg xmlns="http://www.w3.org/2000/svg" width="24" height="24" fill="currentColor" viewBox="0 0 24 24">
  <path d="m19.1.9-1.4 1.4C19.2 3.8 20 5.8 20 8s-.8 4.2-2.3 5.7l1.4 1.4C21 13.2 22 10.7 22 8c0-2.7-1-5.2-2.9-7.1Z"/>
  <path d="m16.2 3.8-1.3 1.5c.7.7 1.2 1.7 1.2 2.8 0 1.1-.5 2-1.2 2.8l1.4 1.4c1.1-1.1 1.8-2.7 1.8-4.2s-.7-3.2-1.8-4.2l-.1-.1ZM9 11c1.2 0 2.2-.5 2.8-1.2C12.6 9 13 8.1 13 7c0-1.1-.5-2.2-1.2-2.8C11 3.4 10.1 3 9 3c-1.1 0-2.2.5-2.8 1.2C5.4 5 5 5.9 5 7c0 1.1.5 2.2 1.2 2.8C7 10.6 7.9 11 9 11Zm2 2H7c-1.3 0-2.5.5-3.5 1.4-1 .9-1.5 2.1-1.5 3.6v3h14v-3c0-1.3-.5-2.5-1.4-3.5-.9-1-2.1-1.5-3.6-1.5Z"/>
</svg>
