<svg width="136" height="38" viewBox="0 0 136 38" fill="none" xmlns="http://www.w3.org/2000/svg">
<path d="M0 11.0579V26.8316C0 26.8316 1.19992 27.818 3.56496 29.1888V11.0579H0Z" fill="#1559EA" style="fill:#1559EA;fill:color(display-p3 0.0824 0.3490 0.9176);fill-opacity:1;"/>
<path d="M28.858 11.0579H4.21851V29.4641C6.82842 30.8567 11.2326 33.0091 15.8346 34.3842C16.5422 34.5959 17.2733 34.8007 18.0262 34.9985C18.6502 35.1624 19.2889 35.321 19.9451 35.4726C23.2417 36.2368 26.2307 36.5157 28.858 36.5052C36.7034 36.473 41.3307 33.8561 41.3307 33.8561V11.0579H28.858Z" fill="#1559EA" style="fill:#1559EA;fill:color(display-p3 0.0824 0.3490 0.9176);fill-opacity:1;"/>
<path d="M36.2991 2.63818V10.4339H4.21246L36.2991 2.63818Z" fill="#1559EA" style="fill:#1559EA;fill:color(display-p3 0.0824 0.3490 0.9176);fill-opacity:1;"/>
<path d="M53.6371 31V28.1108L65.1264 11.9897H53.6146V7.97629H71.2421V10.8655L59.7415 26.9866H71.2646V31H53.6371ZM73.7335 31V7.97629H78.6013V18.1279H78.9048L87.1902 7.97629H93.0248L84.4808 18.2852L93.126 31H87.3026L80.9958 21.5342L78.6013 24.4571V31H73.7335ZM98.262 31H93.0457L100.994 7.97629H107.267L115.204 31H109.987L104.22 13.2376H104.04L98.262 31ZM97.936 21.9502H110.257V25.75H97.936V21.9502ZM116.709 31V7.97629H125.792C127.538 7.97629 129.026 8.30981 130.255 8.97683C131.484 9.63637 132.421 10.5545 133.066 11.7311C133.718 12.9003 134.044 14.2494 134.044 15.7783C134.044 17.3072 133.714 18.6562 133.055 19.8254C132.395 20.9946 131.439 21.9052 130.188 22.5572C128.944 23.2093 127.437 23.5353 125.669 23.5353H119.879V19.6343H124.882C125.818 19.6343 126.59 19.4732 127.197 19.1509C127.812 18.8211 128.269 18.3677 128.569 17.7906C128.876 17.206 129.03 16.5352 129.03 15.7783C129.03 15.0138 128.876 14.3468 128.569 13.7772C128.269 13.2001 127.812 12.7542 127.197 12.4394C126.583 12.1171 125.803 11.956 124.859 11.956H121.576V31H116.709Z" fill="#1559EA" style="fill:#1559EA;fill:color(display-p3 0.0824 0.3490 0.9176);fill-opacity:1;"/>
</svg>
